<svg width="30" height="30" viewBox="0 0 30 30" fill="none" xmlns="http://www.w3.org/2000/svg">
<path d="M24.6202 19.0109C24.6202 24.9146 20.9037 28.6311 15 28.6311C9.09632 28.6311 5.37982 24.9146 5.37982 19.0109C5.37982 12.6756 12.2763 4.123 14.3914 1.64918C14.4667 1.56125 14.5601 1.49068 14.6651 1.44231C14.7703 1.39393 14.8846 1.36893 15.0003 1.36893C15.116 1.36893 15.2304 1.39393 15.3355 1.44231C15.4406 1.49068 15.5339 1.56125 15.6093 1.64918C17.7237 4.123 24.6202 12.6757 24.6202 19.0109Z" stroke="#AE6E4B" stroke-miterlimit="10"/>
<path d="M20.88 19.5453C20.88 20.8211 20.3731 22.0446 19.471 22.9469C18.5688 23.8489 17.3452 24.3558 16.0694 24.3558" stroke="#AE6E4B" stroke-linecap="round" stroke-linejoin="round"/>
</svg>
