<svg width="203" height="214" viewBox="0 0 203 214" fill="none" xmlns="http://www.w3.org/2000/svg">
<rect x="113" width="88" height="89" rx="12" fill="#5D8779"/>
<rect y="126" width="89" height="88" rx="12" fill="#5D8779"/>
<rect x="114" y="106" width="89" height="88" rx="12" fill="#5D8779"/>
<rect y="22" width="89" height="89" rx="12" fill="#5D8779"/>
<path d="M133.923 19.98C134.073 19.98 134.113 20.1 134.113 20.25V26.73C134.113 26.88 134.073 27 133.923 27C133.773 27 133.723 26.88 133.723 26.73V20.25C133.723 20.1 133.773 19.98 133.923 19.98ZM137.375 21.97C138.545 21.97 139.015 22.6 139.015 23.71V26.76C139.015 26.91 138.985 27 138.835 27C138.685 27 138.655 26.91 138.655 26.76V23.66C138.655 22.45 137.975 22.28 137.305 22.28C136.325 22.28 135.685 23.2 135.665 24.51C135.665 25.57 135.665 26.72 135.665 26.72C135.665 26.87 135.635 27 135.485 27C135.335 27 135.305 26.87 135.305 26.72V22.24C135.305 22.09 135.325 22.01 135.445 22.01C135.575 22.01 135.665 22.16 135.665 22.87C135.665 22.93 135.665 23.03 135.665 23.13C135.995 22.35 136.615 21.97 137.375 21.97ZM140.221 24.5C140.221 25.62 140.871 26.73 142.311 26.73C142.801 26.73 143.271 26.63 143.571 26.51C143.761 26.43 143.791 26.46 143.831 26.58C143.871 26.7 143.811 26.75 143.761 26.77C143.371 26.93 142.891 27.04 142.311 27.04C140.741 27.04 139.871 25.9 139.871 24.5C139.871 23.11 140.741 21.97 142.311 21.97C142.891 21.97 143.371 22.08 143.761 22.24C143.811 22.26 143.871 22.31 143.831 22.43C143.791 22.55 143.761 22.58 143.571 22.5C143.271 22.38 142.801 22.28 142.311 22.28C140.871 22.28 140.221 23.39 140.221 24.5ZM146.833 21.97C148.333 21.97 149.283 23.11 149.283 24.5C149.283 25.9 148.333 27.04 146.833 27.04C145.323 27.04 144.373 25.9 144.373 24.5C144.373 23.11 145.323 21.97 146.833 21.97ZM146.833 26.72C148.033 26.72 148.923 25.8 148.923 24.5C148.923 23.21 148.033 22.28 146.833 22.28C145.623 22.28 144.733 23.21 144.733 24.5C144.733 25.8 145.623 26.72 146.833 26.72ZM152.209 21.97C153.379 21.97 153.849 22.6 153.849 23.71V26.76C153.849 26.91 153.819 27 153.669 27C153.519 27 153.489 26.91 153.489 26.76V23.66C153.489 22.45 152.809 22.28 152.139 22.28C151.159 22.28 150.519 23.2 150.499 24.51C150.499 25.57 150.499 26.72 150.499 26.72C150.499 26.87 150.469 27 150.319 27C150.169 27 150.139 26.87 150.139 26.72V22.24C150.139 22.09 150.159 22.01 150.279 22.01C150.409 22.01 150.499 22.16 150.499 22.87C150.499 22.93 150.499 23.03 150.499 23.13C150.829 22.35 151.449 21.97 152.209 21.97ZM157.559 26.78C157.579 26.88 157.549 26.94 157.409 26.96C157.209 27 156.989 27.04 156.609 27.04C155.649 27.04 155.429 26.5 155.429 25.89C155.429 25.89 155.429 22.87 155.429 22.32H154.829C154.679 22.32 154.559 22.31 154.559 22.17C154.559 22.02 154.679 22.01 154.829 22.01H155.429C155.429 21.93 155.429 21.85 155.429 21.78C155.429 21.08 155.519 20.81 155.649 20.81C155.769 20.81 155.779 20.89 155.779 21.04V22.01H157.319C157.469 22.01 157.549 22.01 157.549 22.12C157.549 22.28 157.269 22.32 156.909 22.32H155.779V25.88C155.779 26.42 155.889 26.73 156.609 26.73C156.919 26.73 157.099 26.69 157.279 26.66C157.439 26.63 157.539 26.64 157.559 26.78ZM158.651 22.01C158.771 22.01 158.781 22.09 158.781 22.24V26.72C158.781 26.87 158.761 27 158.601 27C158.451 27 158.431 26.87 158.431 26.72C158.431 26.72 158.431 23.57 158.431 22.87C158.431 22.16 158.521 22.01 158.651 22.01ZM158.601 20.87C158.471 20.87 158.361 20.76 158.361 20.63C158.361 20.49 158.471 20.38 158.601 20.38C158.741 20.38 158.851 20.49 158.851 20.63C158.851 20.76 158.741 20.87 158.601 20.87ZM162.043 21.97C163.213 21.97 163.683 22.6 163.683 23.71V26.76C163.683 26.91 163.653 27 163.503 27C163.353 27 163.323 26.91 163.323 26.76V23.66C163.323 22.45 162.643 22.28 161.973 22.28C160.993 22.28 160.353 23.2 160.333 24.51C160.333 25.57 160.333 26.72 160.333 26.72C160.333 26.87 160.303 27 160.153 27C160.003 27 159.973 26.87 159.973 26.72V22.24C159.973 22.09 159.993 22.01 160.113 22.01C160.243 22.01 160.333 22.16 160.333 22.87C160.333 22.93 160.333 23.03 160.333 23.13C160.663 22.35 161.283 21.97 162.043 21.97ZM167.859 21.27C167.909 21.36 167.879 21.41 167.839 21.41C167.759 21.41 167.669 21.36 167.539 21.18C167.429 21.02 167.059 20.51 166.899 20.3C166.739 20.51 166.369 21.02 166.259 21.18C166.129 21.36 166.039 21.41 165.959 21.41C165.909 21.41 165.889 21.36 165.939 21.27C165.989 21.18 166.579 20.18 166.649 20.06C166.709 19.94 166.779 19.91 166.899 19.91C167.019 19.91 167.079 19.93 167.149 20.06C167.229 20.19 167.809 21.18 167.859 21.27ZM168.399 26.51C168.589 26.43 168.619 26.46 168.659 26.58C168.699 26.7 168.639 26.75 168.589 26.77C168.199 26.93 167.719 27.04 167.139 27.04C165.569 27.04 164.539 25.9 164.539 24.5C164.539 23.11 165.549 21.97 166.949 21.97C167.969 21.97 168.669 22.49 168.689 23.32C168.709 23.98 168.419 24.6 167.259 24.69C165.969 24.79 164.959 24.87 164.959 24.87C164.949 24.87 164.939 24.87 164.919 24.88C165.079 25.85 165.859 26.73 167.139 26.73C167.629 26.73 168.109 26.63 168.399 26.51ZM166.989 22.27C165.609 22.27 164.889 23.36 164.889 24.5C164.889 24.52 164.889 24.53 164.889 24.55C165.129 24.53 166.539 24.42 167.289 24.36C167.829 24.32 168.359 24.09 168.339 23.36C168.329 22.86 167.879 22.27 166.989 22.27ZM171.692 21.97C172.862 21.97 173.332 22.6 173.332 23.71V26.76C173.332 26.91 173.302 27 173.152 27C173.002 27 172.972 26.91 172.972 26.76V23.66C172.972 22.45 172.292 22.28 171.622 22.28C170.642 22.28 170.002 23.2 169.982 24.51C169.982 25.57 169.982 26.72 169.982 26.72C169.982 26.87 169.952 27 169.802 27C169.652 27 169.622 26.87 169.622 26.72V22.24C169.622 22.09 169.642 22.01 169.762 22.01C169.892 22.01 169.982 22.16 169.982 22.87C169.982 22.93 169.982 23.03 169.982 23.13C170.312 22.35 170.932 21.97 171.692 21.97ZM174.538 24.5C174.538 25.62 175.188 26.73 176.628 26.73C177.118 26.73 177.588 26.63 177.888 26.51C178.078 26.43 178.108 26.46 178.148 26.58C178.188 26.7 178.128 26.75 178.078 26.77C177.688 26.93 177.208 27.04 176.628 27.04C175.058 27.04 174.188 25.9 174.188 24.5C174.188 23.11 175.058 21.97 176.628 21.97C177.208 21.97 177.688 22.08 178.078 22.24C178.128 22.26 178.188 22.31 178.148 22.43C178.108 22.55 178.078 22.58 177.888 22.5C177.588 22.38 177.118 22.28 176.628 22.28C175.188 22.28 174.538 23.39 174.538 24.5ZM179.246 22.01C179.366 22.01 179.376 22.09 179.376 22.24V26.72C179.376 26.87 179.356 27 179.196 27C179.046 27 179.026 26.87 179.026 26.72C179.026 26.72 179.026 23.57 179.026 22.87C179.026 22.16 179.116 22.01 179.246 22.01ZM179.196 20.87C179.066 20.87 178.956 20.76 178.956 20.63C178.956 20.49 179.066 20.38 179.196 20.38C179.336 20.38 179.446 20.49 179.446 20.63C179.446 20.76 179.336 20.87 179.196 20.87ZM184.202 22.01C184.322 22.01 184.332 22.09 184.332 22.24V26.76C184.332 26.91 184.322 27 184.202 27C184.072 27 183.982 26.85 183.982 26.14C183.982 26.04 183.982 25.9 183.982 25.75C183.652 26.55 183.072 27.04 182.262 27.04C180.992 27.04 180.242 26 180.242 24.66C180.242 22.9 181.322 21.97 182.412 21.97C183.012 21.97 183.602 22.15 184.002 22.35C184.042 22.08 184.112 22.01 184.202 22.01ZM182.342 26.73C183.312 26.73 183.952 25.6 183.982 24.49C183.982 23.77 183.982 23.06 183.982 22.87C183.982 22.79 183.982 22.72 183.982 22.66C183.682 22.53 183.102 22.28 182.592 22.28C181.262 22.28 180.602 23.23 180.602 24.61C180.602 25.72 181.132 26.73 182.342 26.73ZM146.774 35.23V33.18C146.774 32.47 146.784 32.01 146.974 32.01C147.124 32.01 147.134 32.13 147.134 32.28V35.19C147.134 36.25 146.644 37.04 145.304 37.04C143.964 37.04 143.474 36.25 143.474 35.19V33.06C143.474 32.35 143.504 32.01 143.684 32.01C143.834 32.01 143.834 32.13 143.834 32.28V35.23C143.834 36.22 144.314 36.73 145.304 36.73C146.294 36.73 146.774 36.22 146.774 35.23ZM150.451 32.01C150.671 32.04 150.651 32.12 150.601 32.25C150.531 32.43 150.451 32.28 149.921 32.28C148.791 32.29 148.561 33.42 148.541 34.7C148.541 35.71 148.541 36.72 148.541 36.72C148.541 36.87 148.521 37 148.371 37C148.221 37 148.191 36.87 148.191 36.72V32.24C148.191 32.09 148.201 32.01 148.321 32.01C148.451 32.01 148.541 32.16 148.541 32.87C148.541 32.87 148.541 32.88 148.541 32.89C148.801 32.3 149.241 31.97 149.981 31.97C150.151 31.97 150.291 31.99 150.451 32.01ZM151.722 32.01C151.842 32.01 151.852 32.09 151.852 32.24V36.72C151.852 36.87 151.832 37 151.672 37C151.522 37 151.502 36.87 151.502 36.72C151.502 36.72 151.502 33.57 151.502 32.87C151.502 32.16 151.592 32.01 151.722 32.01ZM151.672 30.87C151.542 30.87 151.432 30.76 151.432 30.63C151.432 30.49 151.542 30.38 151.672 30.38C151.812 30.38 151.922 30.49 151.922 30.63C151.922 30.76 151.812 30.87 151.672 30.87ZM155.115 31.97C156.285 31.97 156.755 32.6 156.755 33.71V36.76C156.755 36.91 156.725 37 156.575 37C156.425 37 156.395 36.91 156.395 36.76V33.66C156.395 32.45 155.715 32.28 155.045 32.28C154.065 32.28 153.425 33.2 153.405 34.51C153.405 35.57 153.405 36.72 153.405 36.72C153.405 36.87 153.375 37 153.225 37C153.075 37 153.045 36.87 153.045 36.72V32.24C153.045 32.09 153.065 32.01 153.185 32.01C153.315 32.01 153.405 32.16 153.405 32.87C153.405 32.93 153.405 33.03 153.405 33.13C153.735 32.35 154.355 31.97 155.115 31.97ZM159.711 31.27C159.771 31.14 160.171 30.35 160.171 30.35C160.221 30.22 160.331 30.15 160.441 30.15H160.541C160.651 30.15 160.691 30.24 160.631 30.35C160.631 30.35 160.171 30.97 160.021 31.18C159.891 31.36 159.801 31.41 159.731 31.41C159.681 31.41 159.651 31.39 159.711 31.27ZM161.571 32.01C161.691 32.01 161.711 32.09 161.711 32.24V36.76C161.711 36.91 161.691 37 161.571 37C161.441 37 161.351 36.85 161.351 36.14C161.351 36.04 161.351 35.9 161.351 35.75C161.031 36.55 160.441 37.04 159.641 37.04C158.361 37.04 157.611 36 157.611 34.66C157.611 32.9 158.691 31.97 159.791 31.97C160.391 31.97 160.981 32.15 161.371 32.35C161.411 32.08 161.481 32.01 161.571 32.01ZM159.711 36.73C160.681 36.73 161.331 35.6 161.351 34.49C161.351 33.77 161.351 33.06 161.351 32.87C161.351 32.79 161.351 32.72 161.351 32.66C161.061 32.53 160.471 32.28 159.961 32.28C158.631 32.28 157.971 33.23 157.971 34.61C157.971 35.72 158.501 36.73 159.711 36.73ZM165.168 32.01C165.388 32.04 165.368 32.12 165.318 32.25C165.248 32.43 165.168 32.28 164.638 32.28C163.508 32.29 163.278 33.42 163.258 34.7C163.258 35.71 163.258 36.72 163.258 36.72C163.258 36.87 163.238 37 163.088 37C162.938 37 162.908 36.87 162.908 36.72V32.24C162.908 32.09 162.918 32.01 163.038 32.01C163.168 32.01 163.258 32.16 163.258 32.87C163.258 32.87 163.258 32.88 163.258 32.89C163.518 32.3 163.958 31.97 164.698 31.97C164.868 31.97 165.008 31.99 165.168 32.01ZM166.439 32.01C166.559 32.01 166.569 32.09 166.569 32.24V36.72C166.569 36.87 166.549 37 166.389 37C166.239 37 166.219 36.87 166.219 36.72C166.219 36.72 166.219 33.57 166.219 32.87C166.219 32.16 166.309 32.01 166.439 32.01ZM166.389 30.87C166.259 30.87 166.149 30.76 166.149 30.63C166.149 30.49 166.259 30.38 166.389 30.38C166.529 30.38 166.639 30.49 166.639 30.63C166.639 30.76 166.529 30.87 166.389 30.87ZM171.395 32.01C171.515 32.01 171.525 32.09 171.525 32.24V36.76C171.525 36.91 171.515 37 171.395 37C171.265 37 171.175 36.85 171.175 36.14C171.175 36.04 171.175 35.9 171.175 35.75C170.845 36.55 170.265 37.04 169.455 37.04C168.185 37.04 167.435 36 167.435 34.66C167.435 32.9 168.515 31.97 169.605 31.97C170.205 31.97 170.795 32.15 171.195 32.35C171.235 32.08 171.305 32.01 171.395 32.01ZM169.535 36.73C170.505 36.73 171.145 35.6 171.175 34.49C171.175 33.77 171.175 33.06 171.175 32.87C171.175 32.79 171.175 32.72 171.175 32.66C170.875 32.53 170.295 32.28 169.785 32.28C168.455 32.28 167.795 33.23 167.795 34.61C167.795 35.72 168.325 36.73 169.535 36.73Z" fill="#E6E6E6"/>
<path d="M13.3632 149.98C15.0432 149.98 15.9832 151.23 15.9832 152.5C15.9832 153.78 15.0432 155 13.3632 155H11.7532V156.73C11.7532 156.88 11.7032 157 11.5532 157C11.4032 157 11.3632 156.88 11.3632 156.73V150.25C11.3632 150.11 11.4032 149.99 11.5432 149.98H13.3632ZM13.3632 154.65C14.9132 154.65 15.6232 153.5 15.6232 152.5C15.6232 151.51 14.9132 150.32 13.3632 150.32H11.7532V154.65H13.3632ZM19.1015 152.01C19.3215 152.04 19.3015 152.12 19.2515 152.25C19.1815 152.43 19.1015 152.28 18.5715 152.28C17.4415 152.29 17.2115 153.42 17.1915 154.7C17.1915 155.71 17.1915 156.72 17.1915 156.72C17.1915 156.87 17.1715 157 17.0215 157C16.8715 157 16.8415 156.87 16.8415 156.72V152.24C16.8415 152.09 16.8515 152.01 16.9715 152.01C17.1015 152.01 17.1915 152.16 17.1915 152.87C17.1915 152.87 17.1915 152.88 17.1915 152.89C17.4515 152.3 17.8915 151.97 18.6315 151.97C18.8015 151.97 18.9415 151.99 19.1015 152.01ZM23.4021 156.51C23.5921 156.43 23.6221 156.46 23.6621 156.58C23.7021 156.7 23.6421 156.75 23.5921 156.77C23.2021 156.93 22.7221 157.04 22.1421 157.04C20.5721 157.04 19.5421 155.9 19.5421 154.5C19.5421 153.11 20.5521 151.97 21.9521 151.97C22.9721 151.97 23.6721 152.49 23.6921 153.32C23.7121 153.98 23.4221 154.6 22.2621 154.69C20.9721 154.79 19.9621 154.87 19.9621 154.87C19.9521 154.87 19.9421 154.87 19.9221 154.88C20.0821 155.85 20.8621 156.73 22.1421 156.73C22.6321 156.73 23.1121 156.63 23.4021 156.51ZM21.9921 152.27C20.6121 152.27 19.8921 153.36 19.8921 154.5C19.8921 154.52 19.8921 154.53 19.8921 154.55C20.1321 154.53 21.5421 154.42 22.2921 154.36C22.8321 154.32 23.3621 154.09 23.3421 153.36C23.3321 152.86 22.8821 152.27 21.9921 152.27ZM26.6264 151.97C27.9064 151.97 28.6464 153.01 28.6464 154.35C28.6464 156.11 27.5764 157.04 26.4764 157.04C25.8964 157.04 25.3164 156.87 24.9164 156.67C24.9164 157.41 24.9164 158.09 24.9164 158.36C24.9164 159.06 24.8264 159.21 24.6964 159.21C24.5764 159.21 24.5564 159.13 24.5564 158.98V157.08V152.24C24.5564 152.09 24.5764 152.01 24.6964 152.01C24.8264 152.01 24.9164 152.16 24.9164 152.87C24.9164 152.96 24.9164 153.09 24.9164 153.26C25.2364 152.46 25.8264 151.97 26.6264 151.97ZM26.3064 156.73C27.6364 156.73 28.2964 155.77 28.2964 154.4C28.2964 153.29 27.7664 152.28 26.5564 152.28C25.5864 152.28 24.9364 153.41 24.9164 154.51C24.9164 154.93 24.9164 155.64 24.9164 156.35C25.2164 156.48 25.7964 156.73 26.3064 156.73ZM33.2775 152.01C33.3975 152.01 33.4075 152.09 33.4075 152.24V156.76C33.4075 156.91 33.3975 157 33.2775 157C33.1475 157 33.0575 156.85 33.0575 156.14C33.0575 156.04 33.0575 155.9 33.0575 155.75C32.7275 156.55 32.1475 157.04 31.3375 157.04C30.0675 157.04 29.3175 156 29.3175 154.66C29.3175 152.9 30.3975 151.97 31.4875 151.97C32.0875 151.97 32.6775 152.15 33.0775 152.35C33.1175 152.08 33.1875 152.01 33.2775 152.01ZM31.4175 156.73C32.3875 156.73 33.0275 155.6 33.0575 154.49C33.0575 153.77 33.0575 153.06 33.0575 152.87C33.0575 152.79 33.0575 152.72 33.0575 152.66C32.7575 152.53 32.1775 152.28 31.6675 152.28C30.3375 152.28 29.6775 153.23 29.6775 154.61C29.6775 155.72 30.2075 156.73 31.4175 156.73ZM36.8554 152.01C37.0754 152.04 37.0554 152.12 37.0054 152.25C36.9354 152.43 36.8554 152.28 36.3254 152.28C35.1954 152.29 34.9654 153.42 34.9454 154.7C34.9454 155.71 34.9454 156.72 34.9454 156.72C34.9454 156.87 34.9254 157 34.7754 157C34.6254 157 34.5954 156.87 34.5954 156.72V152.24C34.5954 152.09 34.6054 152.01 34.7254 152.01C34.8554 152.01 34.9454 152.16 34.9454 152.87C34.9454 152.87 34.9454 152.88 34.9454 152.89C35.2054 152.3 35.6454 151.97 36.3854 151.97C36.5554 151.97 36.6954 151.99 36.8554 152.01ZM41.383 152.01C41.503 152.01 41.513 152.09 41.513 152.24V156.76C41.513 156.91 41.503 157 41.383 157C41.253 157 41.163 156.85 41.163 156.14C41.163 156.04 41.163 155.9 41.163 155.75C40.833 156.55 40.253 157.04 39.443 157.04C38.173 157.04 37.423 156 37.423 154.66C37.423 152.9 38.503 151.97 39.593 151.97C40.193 151.97 40.783 152.15 41.183 152.35C41.223 152.08 41.293 152.01 41.383 152.01ZM39.523 156.73C40.493 156.73 41.133 155.6 41.163 154.49C41.163 153.77 41.163 153.06 41.163 152.87C41.163 152.79 41.163 152.72 41.163 152.66C40.863 152.53 40.283 152.28 39.773 152.28C38.443 152.28 37.783 153.23 37.783 154.61C37.783 155.72 38.313 156.73 39.523 156.73ZM45.2739 157.84C45.8539 157.84 46.3539 158.25 46.3539 158.86C46.3539 159.58 45.8539 160.02 45.1939 160.02C44.7739 160.02 44.5139 159.95 44.3239 159.9C44.1939 159.87 44.1939 159.79 44.2239 159.69C44.2539 159.59 44.2939 159.56 44.4539 159.61C44.6239 159.65 44.8839 159.71 45.1939 159.71C45.7339 159.71 45.9939 159.29 45.9939 158.86C45.9939 158.44 45.7339 158.15 45.1939 158.15C44.9439 158.15 44.6939 158.22 44.5839 158.25C44.5139 158.28 44.4739 158.3 44.4239 158.3C44.3239 158.3 44.2939 158.23 44.3139 158.1L44.4639 157.02C43.1239 156.86 42.3839 155.79 42.3839 154.5C42.3839 153.11 43.2539 151.97 44.8239 151.97C45.4039 151.97 45.8839 152.08 46.2739 152.24C46.3239 152.26 46.3839 152.31 46.3439 152.43C46.3039 152.55 46.2739 152.58 46.0839 152.5C45.7839 152.38 45.3139 152.28 44.8239 152.28C43.3839 152.28 42.7339 153.39 42.7339 154.5C42.7339 155.62 43.3839 156.73 44.8239 156.73C45.3139 156.73 45.7839 156.63 46.0839 156.51C46.2739 156.43 46.3039 156.46 46.3439 156.58C46.3839 156.7 46.3239 156.75 46.2739 156.77C45.8839 156.93 45.4039 157.04 44.8239 157.04C44.8039 157.13 44.7839 157.27 44.7539 157.56C44.7439 157.7 44.7239 157.81 44.7039 157.91C44.8439 157.87 45.0339 157.84 45.2739 157.84ZM49.0559 150.99C48.6859 150.74 48.3459 150.8 48.0659 151.09C47.9559 151.21 47.8759 151.15 47.8759 151.05C47.8759 150.92 47.9559 150.8 48.0659 150.71C48.4059 150.45 48.9059 150.5 49.2959 150.76C49.6659 151 50.0159 150.95 50.2859 150.65C50.3959 150.53 50.4759 150.59 50.4759 150.7C50.4759 150.82 50.4059 150.94 50.2859 151.03C49.9359 151.29 49.4459 151.25 49.0559 150.99ZM50.8459 152.01C50.9659 152.01 50.9859 152.09 50.9859 152.24V156.76C50.9859 156.91 50.9659 157 50.8459 157C50.7159 157 50.6259 156.85 50.6259 156.14C50.6259 156.04 50.6259 155.9 50.6259 155.75C50.3059 156.55 49.7159 157.04 48.9159 157.04C47.6359 157.04 46.8959 156 46.8959 154.66C46.8959 152.9 47.9659 151.97 49.0659 151.97C49.6659 151.97 50.2559 152.15 50.6559 152.35C50.6859 152.08 50.7559 152.01 50.8459 152.01ZM48.9859 156.73C49.9659 156.73 50.6059 155.6 50.6259 154.49C50.6259 153.77 50.6259 153.06 50.6259 152.87C50.6259 152.79 50.6259 152.72 50.6259 152.66C50.3359 152.53 49.7559 152.28 49.2359 152.28C47.9059 152.28 47.2459 153.23 47.2459 154.61C47.2459 155.72 47.7759 156.73 48.9859 156.73ZM54.3264 151.97C55.8264 151.97 56.7764 153.11 56.7764 154.5C56.7764 155.9 55.8264 157.04 54.3264 157.04C52.8164 157.04 51.8664 155.9 51.8664 154.5C51.8664 153.11 52.8164 151.97 54.3264 151.97ZM54.3264 156.72C55.5264 156.72 56.4164 155.8 56.4164 154.5C56.4164 153.21 55.5264 152.28 54.3264 152.28C53.1164 152.28 52.2264 153.21 52.2264 154.5C52.2264 155.8 53.1164 156.72 54.3264 156.72ZM62.7592 151.97C64.0392 151.97 64.7792 153.01 64.7792 154.35C64.7792 156.11 63.7092 157.04 62.6092 157.04C62.0292 157.04 61.4492 156.87 61.0492 156.67C61.0492 157.41 61.0492 158.09 61.0492 158.36C61.0492 159.06 60.9592 159.21 60.8292 159.21C60.7092 159.21 60.6892 159.13 60.6892 158.98V157.08V152.24C60.6892 152.09 60.7092 152.01 60.8292 152.01C60.9592 152.01 61.0492 152.16 61.0492 152.87C61.0492 152.96 61.0492 153.09 61.0492 153.26C61.3692 152.46 61.9592 151.97 62.7592 151.97ZM62.4392 156.73C63.7692 156.73 64.4292 155.77 64.4292 154.4C64.4292 153.29 63.8992 152.28 62.6892 152.28C61.7192 152.28 61.0692 153.41 61.0492 154.51C61.0492 154.93 61.0492 155.64 61.0492 156.35C61.3492 156.48 61.9292 156.73 62.4392 156.73ZM69.4104 152.01C69.5304 152.01 69.5404 152.09 69.5404 152.24V156.76C69.5404 156.91 69.5304 157 69.4104 157C69.2804 157 69.1904 156.85 69.1904 156.14C69.1904 156.04 69.1904 155.9 69.1904 155.75C68.8604 156.55 68.2804 157.04 67.4704 157.04C66.2004 157.04 65.4504 156 65.4504 154.66C65.4504 152.9 66.5304 151.97 67.6204 151.97C68.2204 151.97 68.8104 152.15 69.2104 152.35C69.2504 152.08 69.3204 152.01 69.4104 152.01ZM67.5504 156.73C68.5204 156.73 69.1604 155.6 69.1904 154.49C69.1904 153.77 69.1904 153.06 69.1904 152.87C69.1904 152.79 69.1904 152.72 69.1904 152.66C68.8904 152.53 68.3104 152.28 67.8004 152.28C66.4704 152.28 65.8104 153.23 65.8104 154.61C65.8104 155.72 66.3404 156.73 67.5504 156.73ZM72.9882 152.01C73.2082 152.04 73.1882 152.12 73.1382 152.25C73.0682 152.43 72.9882 152.28 72.4582 152.28C71.3282 152.29 71.0982 153.42 71.0782 154.7C71.0782 155.71 71.0782 156.72 71.0782 156.72C71.0782 156.87 71.0582 157 70.9082 157C70.7582 157 70.7282 156.87 70.7282 156.72V152.24C70.7282 152.09 70.7382 152.01 70.8582 152.01C70.9882 152.01 71.0782 152.16 71.0782 152.87C71.0782 152.87 71.0782 152.88 71.0782 152.89C71.3382 152.3 71.7782 151.97 72.5182 151.97C72.6882 151.97 72.8282 151.99 72.9882 152.01ZM77.5158 152.01C77.6358 152.01 77.6458 152.09 77.6458 152.24V156.76C77.6458 156.91 77.6358 157 77.5158 157C77.3858 157 77.2958 156.85 77.2958 156.14C77.2958 156.04 77.2958 155.9 77.2958 155.75C76.9658 156.55 76.3858 157.04 75.5758 157.04C74.3058 157.04 73.5558 156 73.5558 154.66C73.5558 152.9 74.6358 151.97 75.7258 151.97C76.3258 151.97 76.9158 152.15 77.3158 152.35C77.3558 152.08 77.4258 152.01 77.5158 152.01ZM75.6558 156.73C76.6258 156.73 77.2658 155.6 77.2958 154.49C77.2958 153.77 77.2958 153.06 77.2958 152.87C77.2958 152.79 77.2958 152.72 77.2958 152.66C76.9958 152.53 76.4158 152.28 75.9058 152.28C74.5758 152.28 73.9158 153.23 73.9158 154.61C73.9158 155.72 74.4458 156.73 75.6558 156.73ZM31.9045 161.97C33.4045 161.97 34.3545 163.11 34.3545 164.5C34.3545 165.9 33.4045 167.04 31.9045 167.04C30.3945 167.04 29.4445 165.9 29.4445 164.5C29.4445 163.11 30.3945 161.97 31.9045 161.97ZM31.9045 166.72C33.1045 166.72 33.9945 165.8 33.9945 164.5C33.9945 163.21 33.1045 162.28 31.9045 162.28C30.6945 162.28 29.8045 163.21 29.8045 164.5C29.8045 165.8 30.6945 166.72 31.9045 166.72ZM40.3373 161.97C41.6173 161.97 42.3573 163.01 42.3573 164.35C42.3573 166.11 41.2873 167.04 40.1873 167.04C39.6073 167.04 39.0273 166.87 38.6273 166.67C38.6273 167.41 38.6273 168.09 38.6273 168.36C38.6273 169.06 38.5373 169.21 38.4073 169.21C38.2873 169.21 38.2673 169.13 38.2673 168.98V167.08V162.24C38.2673 162.09 38.2873 162.01 38.4073 162.01C38.5373 162.01 38.6273 162.16 38.6273 162.87C38.6273 162.96 38.6273 163.09 38.6273 163.26C38.9473 162.46 39.5373 161.97 40.3373 161.97ZM40.0173 166.73C41.3473 166.73 42.0073 165.77 42.0073 164.4C42.0073 163.29 41.4773 162.28 40.2673 162.28C39.2973 162.28 38.6473 163.41 38.6273 164.51C38.6273 164.93 38.6273 165.64 38.6273 166.35C38.9273 166.48 39.5073 166.73 40.0173 166.73ZM46.9885 162.01C47.1085 162.01 47.1185 162.09 47.1185 162.24V166.76C47.1185 166.91 47.1085 167 46.9885 167C46.8585 167 46.7685 166.85 46.7685 166.14C46.7685 166.04 46.7685 165.9 46.7685 165.75C46.4385 166.55 45.8585 167.04 45.0485 167.04C43.7785 167.04 43.0285 166 43.0285 164.66C43.0285 162.9 44.1085 161.97 45.1985 161.97C45.7985 161.97 46.3885 162.15 46.7885 162.35C46.8285 162.08 46.8985 162.01 46.9885 162.01ZM45.1285 166.73C46.0985 166.73 46.7385 165.6 46.7685 164.49C46.7685 163.77 46.7685 163.06 46.7685 162.87C46.7685 162.79 46.7685 162.72 46.7685 162.66C46.4685 162.53 45.8885 162.28 45.3785 162.28C44.0485 162.28 43.3885 163.23 43.3885 164.61C43.3885 165.72 43.9185 166.73 45.1285 166.73ZM50.5664 162.01C50.7864 162.04 50.7664 162.12 50.7164 162.25C50.6464 162.43 50.5664 162.28 50.0364 162.28C48.9064 162.29 48.6764 163.42 48.6564 164.7C48.6564 165.71 48.6564 166.72 48.6564 166.72C48.6564 166.87 48.6364 167 48.4864 167C48.3364 167 48.3064 166.87 48.3064 166.72V162.24C48.3064 162.09 48.3164 162.01 48.4364 162.01C48.5664 162.01 48.6564 162.16 48.6564 162.87C48.6564 162.87 48.6564 162.88 48.6564 162.89C48.9164 162.3 49.3564 161.97 50.0964 161.97C50.2664 161.97 50.4064 161.99 50.5664 162.01ZM54.4071 166.78C54.4271 166.88 54.3971 166.94 54.2571 166.96C54.0571 167 53.8371 167.04 53.4571 167.04C52.4971 167.04 52.2771 166.5 52.2771 165.89C52.2771 165.89 52.2771 162.87 52.2771 162.32H51.6771C51.5271 162.32 51.4071 162.31 51.4071 162.17C51.4071 162.02 51.5271 162.01 51.6771 162.01H52.2771C52.2771 161.93 52.2771 161.85 52.2771 161.78C52.2771 161.08 52.3671 160.81 52.4971 160.81C52.6171 160.81 52.6271 160.89 52.6271 161.04V162.01H54.1671C54.3171 162.01 54.3971 162.01 54.3971 162.12C54.3971 162.28 54.1171 162.32 53.7571 162.32H52.6271V165.88C52.6271 166.42 52.7371 166.73 53.4571 166.73C53.7671 166.73 53.9471 166.69 54.1271 166.66C54.2871 166.63 54.3871 166.64 54.4071 166.78ZM57.1193 161.97C58.6193 161.97 59.5693 163.11 59.5693 164.5C59.5693 165.9 58.6193 167.04 57.1193 167.04C55.6093 167.04 54.6593 165.9 54.6593 164.5C54.6593 163.11 55.6093 161.97 57.1193 161.97ZM57.1193 166.72C58.3193 166.72 59.2093 165.8 59.2093 164.5C59.2093 163.21 58.3193 162.28 57.1193 162.28C55.9093 162.28 55.0193 163.21 55.0193 164.5C55.0193 165.8 55.9093 166.72 57.1193 166.72Z" fill="#E6E6E6"/>
<path d="M127.634 126.98C127.774 126.98 127.854 127.01 127.854 127.15C127.854 127.3 127.774 127.32 127.634 127.32H124.244V130.13H126.754C126.894 130.13 126.974 130.16 126.974 130.31C126.974 130.45 126.894 130.48 126.754 130.48H124.244V133.73C124.244 133.88 124.204 134 124.054 134H124.044C123.894 134 123.854 133.88 123.854 133.73V127.25C123.854 127.1 123.894 126.98 124.044 126.98H127.634ZM130.021 128.97C131.521 128.97 132.471 130.11 132.471 131.5C132.471 132.9 131.521 134.04 130.021 134.04C128.511 134.04 127.561 132.9 127.561 131.5C127.561 130.11 128.511 128.97 130.021 128.97ZM130.021 133.72C131.221 133.72 132.111 132.8 132.111 131.5C132.111 130.21 131.221 129.28 130.021 129.28C128.811 129.28 127.921 130.21 127.921 131.5C127.921 132.8 128.811 133.72 130.021 133.72ZM135.587 129.01C135.807 129.04 135.787 129.12 135.737 129.25C135.667 129.43 135.587 129.28 135.057 129.28C133.927 129.29 133.697 130.42 133.677 131.7C133.677 132.71 133.677 133.72 133.677 133.72C133.677 133.87 133.657 134 133.507 134C133.357 134 133.327 133.87 133.327 133.72V129.24C133.327 129.09 133.337 129.01 133.457 129.01C133.587 129.01 133.677 129.16 133.677 129.87C133.677 129.87 133.677 129.88 133.677 129.89C133.937 129.3 134.377 128.97 135.117 128.97C135.287 128.97 135.427 128.99 135.587 129.01ZM139.428 133.78C139.448 133.88 139.418 133.94 139.278 133.96C139.078 134 138.858 134.04 138.478 134.04C137.518 134.04 137.298 133.5 137.298 132.89C137.298 132.89 137.298 129.87 137.298 129.32H136.698C136.548 129.32 136.428 129.31 136.428 129.17C136.428 129.02 136.548 129.01 136.698 129.01H137.298C137.298 128.93 137.298 128.85 137.298 128.78C137.298 128.08 137.388 127.81 137.518 127.81C137.638 127.81 137.648 127.89 137.648 128.04V129.01H139.188C139.338 129.01 139.418 129.01 139.418 129.12C139.418 129.28 139.138 129.32 138.778 129.32H137.648V132.88C137.648 133.42 137.758 133.73 138.478 133.73C138.788 133.73 138.968 133.69 139.148 133.66C139.308 133.63 139.408 133.64 139.428 133.78ZM143.777 129.01C143.897 129.01 143.907 129.09 143.907 129.24V133.76C143.907 133.91 143.897 134 143.777 134C143.647 134 143.557 133.85 143.557 133.14C143.557 133.04 143.557 132.9 143.557 132.75C143.227 133.55 142.647 134.04 141.837 134.04C140.567 134.04 139.817 133 139.817 131.66C139.817 129.9 140.897 128.97 141.987 128.97C142.587 128.97 143.177 129.15 143.577 129.35C143.617 129.08 143.687 129.01 143.777 129.01ZM141.917 133.73C142.887 133.73 143.527 132.6 143.557 131.49C143.557 130.77 143.557 130.06 143.557 129.87C143.557 129.79 143.557 129.72 143.557 129.66C143.257 129.53 142.677 129.28 142.167 129.28C140.837 129.28 140.177 130.23 140.177 131.61C140.177 132.72 140.707 133.73 141.917 133.73ZM145.454 127.83V133.72C145.454 133.87 145.434 134 145.284 134C145.134 134 145.104 133.87 145.104 133.72V127.2C145.104 127.05 145.114 126.97 145.234 126.97C145.364 126.97 145.454 127.12 145.454 127.83ZM150.19 133.51C150.38 133.43 150.41 133.46 150.45 133.58C150.49 133.7 150.43 133.75 150.38 133.77C149.99 133.93 149.51 134.04 148.93 134.04C147.36 134.04 146.33 132.9 146.33 131.5C146.33 130.11 147.34 128.97 148.74 128.97C149.76 128.97 150.46 129.49 150.48 130.32C150.5 130.98 150.21 131.6 149.05 131.69C147.76 131.79 146.75 131.87 146.75 131.87C146.74 131.87 146.73 131.87 146.71 131.88C146.87 132.85 147.65 133.73 148.93 133.73C149.42 133.73 149.9 133.63 150.19 133.51ZM148.78 129.27C147.4 129.27 146.68 130.36 146.68 131.5C146.68 131.52 146.68 131.53 146.68 131.55C146.92 131.53 148.33 131.42 149.08 131.36C149.62 131.32 150.15 131.09 150.13 130.36C150.12 129.86 149.67 129.27 148.78 129.27ZM151.504 131.5C151.504 132.62 152.154 133.73 153.594 133.73C154.084 133.73 154.554 133.63 154.854 133.51C155.044 133.43 155.074 133.46 155.114 133.58C155.154 133.7 155.094 133.75 155.044 133.77C154.654 133.93 154.174 134.04 153.594 134.04C152.024 134.04 151.154 132.9 151.154 131.5C151.154 130.11 152.024 128.97 153.594 128.97C154.174 128.97 154.654 129.08 155.044 129.24C155.094 129.26 155.154 129.31 155.114 129.43C155.074 129.55 155.044 129.58 154.854 129.5C154.554 129.38 154.084 129.28 153.594 129.28C152.154 129.28 151.504 130.39 151.504 131.5ZM156.213 129.01C156.333 129.01 156.343 129.09 156.343 129.24V133.72C156.343 133.87 156.323 134 156.163 134C156.013 134 155.993 133.87 155.993 133.72C155.993 133.72 155.993 130.57 155.993 129.87C155.993 129.16 156.083 129.01 156.213 129.01ZM156.163 127.87C156.033 127.87 155.923 127.76 155.923 127.63C155.923 127.49 156.033 127.38 156.163 127.38C156.303 127.38 156.413 127.49 156.413 127.63C156.413 127.76 156.303 127.87 156.163 127.87ZM162.716 128.97C163.786 128.97 164.276 129.6 164.276 130.71V133.76C164.276 133.91 164.246 134 164.096 134C163.946 134 163.916 133.91 163.916 133.76V130.66C163.916 129.45 163.216 129.28 162.646 129.28C161.656 129.28 161.086 130.23 161.086 131.56V133.76C161.086 133.91 161.056 134 160.906 134C160.756 134 160.726 133.91 160.726 133.76V130.66C160.726 129.45 160.026 129.28 159.456 129.28C158.486 129.28 157.926 130.2 157.906 131.5C157.906 132.57 157.906 133.72 157.906 133.72C157.906 133.87 157.876 134 157.726 134C157.576 134 157.546 133.87 157.546 133.72V129.24C157.546 129.09 157.556 129.01 157.676 129.01C157.806 129.01 157.906 129.16 157.906 129.87C157.906 129.92 157.906 130 157.906 130.08C158.216 129.33 158.786 128.97 159.536 128.97C160.416 128.97 160.906 129.41 161.046 130.19C161.346 129.37 161.936 128.97 162.716 128.97ZM169.009 133.51C169.199 133.43 169.229 133.46 169.269 133.58C169.309 133.7 169.249 133.75 169.199 133.77C168.809 133.93 168.329 134.04 167.749 134.04C166.179 134.04 165.149 132.9 165.149 131.5C165.149 130.11 166.159 128.97 167.559 128.97C168.579 128.97 169.279 129.49 169.299 130.32C169.319 130.98 169.029 131.6 167.869 131.69C166.579 131.79 165.569 131.87 165.569 131.87C165.559 131.87 165.549 131.87 165.529 131.88C165.689 132.85 166.469 133.73 167.749 133.73C168.239 133.73 168.719 133.63 169.009 133.51ZM167.599 129.27C166.219 129.27 165.499 130.36 165.499 131.5C165.499 131.52 165.499 131.53 165.499 131.55C165.739 131.53 167.149 131.42 167.899 131.36C168.439 131.32 168.969 131.09 168.949 130.36C168.939 129.86 168.489 129.27 167.599 129.27ZM172.301 128.97C173.471 128.97 173.941 129.6 173.941 130.71V133.76C173.941 133.91 173.911 134 173.761 134C173.611 134 173.581 133.91 173.581 133.76V130.66C173.581 129.45 172.901 129.28 172.231 129.28C171.251 129.28 170.611 130.2 170.591 131.51C170.591 132.57 170.591 133.72 170.591 133.72C170.591 133.87 170.561 134 170.411 134C170.261 134 170.231 133.87 170.231 133.72V129.24C170.231 129.09 170.251 129.01 170.371 129.01C170.501 129.01 170.591 129.16 170.591 129.87C170.591 129.93 170.591 130.03 170.591 130.13C170.921 129.35 171.541 128.97 172.301 128.97ZM177.65 133.78C177.67 133.88 177.64 133.94 177.5 133.96C177.3 134 177.08 134.04 176.7 134.04C175.74 134.04 175.52 133.5 175.52 132.89C175.52 132.89 175.52 129.87 175.52 129.32H174.92C174.77 129.32 174.65 129.31 174.65 129.17C174.65 129.02 174.77 129.01 174.92 129.01H175.52C175.52 128.93 175.52 128.85 175.52 128.78C175.52 128.08 175.61 127.81 175.74 127.81C175.86 127.81 175.87 127.89 175.87 128.04V129.01H177.41C177.56 129.01 177.64 129.01 177.64 129.12C177.64 129.28 177.36 129.32 177 129.32H175.87V132.88C175.87 133.42 175.98 133.73 176.7 133.73C177.01 133.73 177.19 133.69 177.37 133.66C177.53 133.63 177.63 133.64 177.65 133.78ZM180.363 128.97C181.863 128.97 182.813 130.11 182.813 131.5C182.813 132.9 181.863 134.04 180.363 134.04C178.853 134.04 177.903 132.9 177.903 131.5C177.903 130.11 178.853 128.97 180.363 128.97ZM180.363 133.72C181.563 133.72 182.453 132.8 182.453 131.5C182.453 130.21 181.563 129.28 180.363 129.28C179.153 129.28 178.263 130.21 178.263 131.5C178.263 132.8 179.153 133.72 180.363 133.72ZM190.625 127.2V133.76C190.625 133.91 190.615 134 190.495 134C190.365 134 190.275 133.85 190.275 133.14C190.275 133.05 190.275 132.91 190.275 132.75C189.955 133.55 189.365 134.04 188.565 134.04C187.285 134.04 186.535 133 186.535 131.66C186.535 129.9 187.615 128.97 188.705 128.97C189.295 128.97 189.875 129.14 190.275 129.34C190.275 129.09 190.275 128.02 190.275 127.83C190.275 127.12 190.365 126.97 190.495 126.97C190.615 126.97 190.625 127.05 190.625 127.2ZM188.635 133.73C189.605 133.73 190.255 132.6 190.275 131.49C190.275 130.85 190.275 130.16 190.275 129.65C189.975 129.53 189.395 129.28 188.885 129.28C187.555 129.28 186.895 130.23 186.895 131.61C186.895 132.72 187.425 133.73 188.635 133.73ZM193.956 128.97C195.456 128.97 196.406 130.11 196.406 131.5C196.406 132.9 195.456 134.04 193.956 134.04C192.446 134.04 191.496 132.9 191.496 131.5C191.496 130.11 192.446 128.97 193.956 128.97ZM193.956 133.72C195.156 133.72 196.046 132.8 196.046 131.5C196.046 130.21 195.156 129.28 193.956 129.28C192.746 129.28 191.856 130.21 191.856 131.5C191.856 132.8 192.746 133.72 193.956 133.72ZM130.305 139.01C130.425 139.01 130.435 139.09 130.435 139.24V143.76C130.435 143.91 130.425 144 130.305 144C130.175 144 130.085 143.85 130.085 143.14C130.085 143.04 130.085 142.9 130.085 142.75C129.755 143.55 129.175 144.04 128.365 144.04C127.095 144.04 126.345 143 126.345 141.66C126.345 139.9 127.425 138.97 128.515 138.97C129.115 138.97 129.705 139.15 130.105 139.35C130.145 139.08 130.215 139.01 130.305 139.01ZM128.445 143.73C129.415 143.73 130.055 142.6 130.085 141.49C130.085 140.77 130.085 140.06 130.085 139.87C130.085 139.79 130.085 139.72 130.085 139.66C129.785 139.53 129.205 139.28 128.695 139.28C127.365 139.28 126.705 140.23 126.705 141.61C126.705 142.72 127.235 143.73 128.445 143.73ZM134.386 142.66C134.386 143.32 133.936 144.04 132.716 144.04C132.146 144.04 131.806 144.01 131.496 143.91C131.306 143.87 131.296 143.77 131.336 143.66C131.396 143.5 131.596 143.56 131.746 143.6C131.906 143.64 132.226 143.72 132.656 143.72C133.316 143.72 134.036 143.45 134.036 142.66C134.036 141.98 133.436 141.8 132.746 141.54C131.946 141.24 131.296 140.96 131.296 140.08C131.296 139.44 131.786 138.97 132.626 138.97C133.096 138.97 133.516 139.04 133.706 139.09C133.886 139.14 133.876 139.21 133.856 139.31C133.836 139.43 133.736 139.45 133.526 139.41C133.316 139.37 133.066 139.28 132.636 139.28C132.016 139.28 131.656 139.55 131.656 140.12C131.656 140.8 132.286 140.98 132.946 141.24C133.826 141.57 134.386 141.8 134.386 142.66ZM137.862 142.66C137.862 143.32 137.412 144.04 136.192 144.04C135.622 144.04 135.282 144.01 134.972 143.91C134.782 143.87 134.772 143.77 134.812 143.66C134.872 143.5 135.072 143.56 135.222 143.6C135.382 143.64 135.702 143.72 136.132 143.72C136.792 143.72 137.512 143.45 137.512 142.66C137.512 141.98 136.912 141.8 136.222 141.54C135.422 141.24 134.772 140.96 134.772 140.08C134.772 139.44 135.262 138.97 136.102 138.97C136.572 138.97 136.992 139.04 137.182 139.09C137.362 139.14 137.352 139.21 137.332 139.31C137.312 139.43 137.212 139.45 137.002 139.41C136.792 139.37 136.542 139.28 136.112 139.28C135.492 139.28 135.132 139.55 135.132 140.12C135.132 140.8 135.762 140.98 136.422 141.24C137.302 141.57 137.862 141.8 137.862 142.66ZM140.856 138.97C142.356 138.97 143.306 140.11 143.306 141.5C143.306 142.9 142.356 144.04 140.856 144.04C139.346 144.04 138.396 142.9 138.396 141.5C138.396 140.11 139.346 138.97 140.856 138.97ZM140.856 143.72C142.056 143.72 142.946 142.8 142.946 141.5C142.946 140.21 142.056 139.28 140.856 139.28C139.646 139.28 138.756 140.21 138.756 141.5C138.756 142.8 139.646 143.72 140.856 143.72ZM147.932 139.01C148.052 139.01 148.062 139.09 148.062 139.24V143.76C148.062 143.91 148.052 144 147.932 144C147.802 144 147.712 143.85 147.712 143.14C147.712 143.04 147.712 142.9 147.712 142.75C147.382 143.55 146.802 144.04 145.992 144.04C144.722 144.04 143.972 143 143.972 141.66C143.972 139.9 145.052 138.97 146.142 138.97C146.742 138.97 147.332 139.15 147.732 139.35C147.772 139.08 147.842 139.01 147.932 139.01ZM146.072 143.73C147.042 143.73 147.682 142.6 147.712 141.49C147.712 140.77 147.712 140.06 147.712 139.87C147.712 139.79 147.712 139.72 147.712 139.66C147.412 139.53 146.832 139.28 146.322 139.28C144.992 139.28 144.332 140.23 144.332 141.61C144.332 142.72 144.862 143.73 146.072 143.73ZM149.609 137.83V143.72C149.609 143.87 149.589 144 149.439 144C149.289 144 149.259 143.87 149.259 143.72V137.2C149.259 137.05 149.269 136.97 149.389 136.97C149.519 136.97 149.609 137.12 149.609 137.83ZM152.882 138.97C154.052 138.97 154.522 139.6 154.522 140.71V143.76C154.522 143.91 154.492 144 154.342 144C154.192 144 154.162 143.91 154.162 143.76V140.66C154.162 139.45 153.482 139.28 152.812 139.28C151.832 139.28 151.192 140.2 151.172 141.51C151.172 142.7 151.172 143.72 151.172 143.72C151.172 143.87 151.142 144 150.992 144C150.842 144 150.812 143.87 150.812 143.72V137.2C150.812 137.05 150.832 136.97 150.952 136.97C151.082 136.97 151.172 137.12 151.172 137.83C151.172 138.1 151.172 139.06 151.172 140.13C151.502 139.35 152.122 138.97 152.882 138.97ZM157.838 138.97C159.338 138.97 160.288 140.11 160.288 141.5C160.288 142.9 159.338 144.04 157.838 144.04C156.328 144.04 155.378 142.9 155.378 141.5C155.378 140.11 156.328 138.97 157.838 138.97ZM157.838 143.72C159.038 143.72 159.928 142.8 159.928 141.5C159.928 140.21 159.038 139.28 157.838 139.28C156.628 139.28 155.738 140.21 155.738 141.5C155.738 142.8 156.628 143.72 157.838 143.72ZM166.271 138.97C167.551 138.97 168.291 140.01 168.291 141.35C168.291 143.11 167.221 144.04 166.121 144.04C165.541 144.04 164.961 143.87 164.561 143.67C164.561 144.41 164.561 145.09 164.561 145.36C164.561 146.06 164.471 146.21 164.341 146.21C164.221 146.21 164.201 146.13 164.201 145.98V144.08V139.24C164.201 139.09 164.221 139.01 164.341 139.01C164.471 139.01 164.561 139.16 164.561 139.87C164.561 139.96 164.561 140.09 164.561 140.26C164.881 139.46 165.471 138.97 166.271 138.97ZM165.951 143.73C167.281 143.73 167.941 142.77 167.941 141.4C167.941 140.29 167.411 139.28 166.201 139.28C165.231 139.28 164.581 140.41 164.561 141.51C164.561 141.93 164.561 142.64 164.561 143.35C164.861 143.48 165.441 143.73 165.951 143.73ZM171.152 138.27C171.212 138.14 171.612 137.35 171.612 137.35C171.662 137.22 171.772 137.15 171.882 137.15H171.982C172.092 137.15 172.132 137.24 172.072 137.35C172.072 137.35 171.612 137.97 171.462 138.18C171.332 138.36 171.242 138.41 171.172 138.41C171.122 138.41 171.092 138.39 171.152 138.27ZM172.822 143.51C173.012 143.43 173.042 143.46 173.082 143.58C173.122 143.7 173.062 143.75 173.012 143.77C172.622 143.93 172.142 144.04 171.562 144.04C169.992 144.04 168.962 142.9 168.962 141.5C168.962 140.11 169.972 138.97 171.372 138.97C172.392 138.97 173.092 139.49 173.112 140.32C173.132 140.98 172.842 141.6 171.682 141.69C170.392 141.79 169.382 141.87 169.382 141.87C169.372 141.87 169.362 141.87 169.342 141.88C169.502 142.85 170.282 143.73 171.562 143.73C172.052 143.73 172.532 143.63 172.822 143.51ZM171.412 139.27C170.032 139.27 169.312 140.36 169.312 141.5C169.312 141.52 169.312 141.53 169.312 141.55C169.552 141.53 170.962 141.42 171.712 141.36C172.252 141.32 172.782 141.09 172.762 140.36C172.752 139.86 172.302 139.27 171.412 139.27ZM174.326 137.83V143.72C174.326 143.87 174.306 144 174.156 144C174.006 144 173.976 143.87 173.976 143.72V137.2C173.976 137.05 173.986 136.97 174.106 136.97C174.236 136.97 174.326 137.12 174.326 137.83ZM179.102 139.01C179.212 139.01 179.212 139.13 179.152 139.28L177.522 143.72C177.472 143.87 177.382 144 177.232 144C177.212 144 177.162 144 177.152 144C177.002 144 176.912 143.87 176.862 143.72L175.232 139.28C175.172 139.13 175.172 139.01 175.282 139.01C175.482 139.01 175.612 139.18 175.802 139.74C176.152 140.71 177.012 143.11 177.192 143.63C177.372 143.11 178.232 140.71 178.572 139.74C178.772 139.18 178.902 139.01 179.102 139.01ZM180.261 139.01C180.381 139.01 180.391 139.09 180.391 139.24V143.72C180.391 143.87 180.371 144 180.211 144C180.061 144 180.041 143.87 180.041 143.72C180.041 143.72 180.041 140.57 180.041 139.87C180.041 139.16 180.131 139.01 180.261 139.01ZM180.211 137.87C180.081 137.87 179.971 137.76 179.971 137.63C179.971 137.49 180.081 137.38 180.211 137.38C180.351 137.38 180.461 137.49 180.461 137.63C180.461 137.76 180.351 137.87 180.211 137.87ZM181.607 141.5C181.607 142.62 182.257 143.73 183.697 143.73C184.187 143.73 184.657 143.63 184.957 143.51C185.147 143.43 185.177 143.46 185.217 143.58C185.257 143.7 185.197 143.75 185.147 143.77C184.757 143.93 184.277 144.04 183.697 144.04C182.127 144.04 181.257 142.9 181.257 141.5C181.257 140.11 182.127 138.97 183.697 138.97C184.277 138.97 184.757 139.08 185.147 139.24C185.197 139.26 185.257 139.31 185.217 139.43C185.177 139.55 185.147 139.58 184.957 139.5C184.657 139.38 184.187 139.28 183.697 139.28C182.257 139.28 181.607 140.39 181.607 141.5ZM188.219 138.97C189.719 138.97 190.669 140.11 190.669 141.5C190.669 142.9 189.719 144.04 188.219 144.04C186.709 144.04 185.759 142.9 185.759 141.5C185.759 140.11 186.709 138.97 188.219 138.97ZM188.219 143.72C189.419 143.72 190.309 142.8 190.309 141.5C190.309 140.21 189.419 139.28 188.219 139.28C187.009 139.28 186.119 140.21 186.119 141.5C186.119 142.8 187.009 143.72 188.219 143.72Z" fill="#E6E6E6"/>
<path d="M16.0466 50.68C16.3166 51.32 16.5066 51.79 16.5066 51.79C16.5766 51.94 16.5566 52 16.4066 52C16.2566 52 16.1366 51.94 16.0666 51.79C16.0666 51.79 15.9166 51.43 15.6566 50.81C15.3666 50.13 14.8466 49.6 13.8766 49.6H12.4466V51.73C12.4466 51.88 12.3966 52 12.2466 52C12.0966 52 12.0566 51.88 12.0566 51.73V45.25C12.0566 45.11 12.0966 44.99 12.2366 44.98H14.0566C15.7366 44.98 16.6366 46.03 16.6366 47.3C16.6366 48.36 16.0166 49.21 14.8566 49.47C15.3966 49.66 15.7566 50.02 16.0466 50.68ZM12.4466 45.32V49.25H14.0566C15.6066 49.25 16.2766 48.3 16.2766 47.3C16.2766 46.31 15.6066 45.32 14.0566 45.32H12.4466ZM21.0193 51.51C21.2093 51.43 21.2393 51.46 21.2793 51.58C21.3193 51.7 21.2593 51.75 21.2093 51.77C20.8193 51.93 20.3393 52.04 19.7593 52.04C18.1893 52.04 17.1593 50.9 17.1593 49.5C17.1593 48.11 18.1693 46.97 19.5693 46.97C20.5893 46.97 21.2893 47.49 21.3093 48.32C21.3293 48.98 21.0393 49.6 19.8793 49.69C18.5893 49.79 17.5793 49.87 17.5793 49.87C17.5693 49.87 17.5593 49.87 17.5393 49.88C17.6993 50.85 18.4793 51.73 19.7593 51.73C20.2493 51.73 20.7293 51.63 21.0193 51.51ZM19.6093 47.27C18.2293 47.27 17.5093 48.36 17.5093 49.5C17.5093 49.52 17.5093 49.53 17.5093 49.55C17.7493 49.53 19.1593 49.42 19.9093 49.36C20.4493 49.32 20.9793 49.09 20.9593 48.36C20.9493 47.86 20.4993 47.27 19.6093 47.27ZM22.5236 45.83V51.72C22.5236 51.87 22.5036 52 22.3536 52C22.2036 52 22.1736 51.87 22.1736 51.72V45.2C22.1736 45.05 22.1836 44.97 22.3036 44.97C22.4336 44.97 22.5236 45.12 22.5236 45.83ZM27.3596 47.01C27.4796 47.01 27.4896 47.09 27.4896 47.24V51.76C27.4896 51.91 27.4796 52 27.3596 52C27.2296 52 27.1396 51.85 27.1396 51.14C27.1396 51.04 27.1396 50.9 27.1396 50.75C26.8096 51.55 26.2296 52.04 25.4196 52.04C24.1496 52.04 23.3996 51 23.3996 49.66C23.3996 47.9 24.4796 46.97 25.5696 46.97C26.1696 46.97 26.7596 47.15 27.1596 47.35C27.1996 47.08 27.2696 47.01 27.3596 47.01ZM25.4996 51.73C26.4696 51.73 27.1096 50.6 27.1396 49.49C27.1396 48.77 27.1396 48.06 27.1396 47.87C27.1396 47.79 27.1396 47.72 27.1396 47.66C26.8396 47.53 26.2596 47.28 25.7496 47.28C24.4196 47.28 23.7596 48.23 23.7596 49.61C23.7596 50.72 24.2896 51.73 25.4996 51.73ZM31.2505 52.84C31.8305 52.84 32.3305 53.25 32.3305 53.86C32.3305 54.58 31.8305 55.02 31.1705 55.02C30.7505 55.02 30.4905 54.95 30.3005 54.9C30.1705 54.87 30.1705 54.79 30.2005 54.69C30.2305 54.59 30.2705 54.56 30.4305 54.61C30.6005 54.65 30.8605 54.71 31.1705 54.71C31.7105 54.71 31.9705 54.29 31.9705 53.86C31.9705 53.44 31.7105 53.15 31.1705 53.15C30.9205 53.15 30.6705 53.22 30.5605 53.25C30.4905 53.28 30.4505 53.3 30.4005 53.3C30.3005 53.3 30.2705 53.23 30.2905 53.1L30.4405 52.02C29.1005 51.86 28.3605 50.79 28.3605 49.5C28.3605 48.11 29.2305 46.97 30.8005 46.97C31.3805 46.97 31.8605 47.08 32.2505 47.24C32.3005 47.26 32.3605 47.31 32.3205 47.43C32.2805 47.55 32.2505 47.58 32.0605 47.5C31.7605 47.38 31.2905 47.28 30.8005 47.28C29.3605 47.28 28.7105 48.39 28.7105 49.5C28.7105 50.62 29.3605 51.73 30.8005 51.73C31.2905 51.73 31.7605 51.63 32.0605 51.51C32.2505 51.43 32.2805 51.46 32.3205 51.58C32.3605 51.7 32.3005 51.75 32.2505 51.77C31.8605 51.93 31.3805 52.04 30.8005 52.04C30.7805 52.13 30.7605 52.27 30.7305 52.56C30.7205 52.7 30.7005 52.81 30.6805 52.91C30.8205 52.87 31.0105 52.84 31.2505 52.84ZM35.0825 45.99C34.7125 45.74 34.3725 45.8 34.0925 46.09C33.9825 46.21 33.9025 46.15 33.9025 46.05C33.9025 45.92 33.9825 45.8 34.0925 45.71C34.4325 45.45 34.9325 45.5 35.3225 45.76C35.6925 46 36.0425 45.95 36.3125 45.65C36.4225 45.53 36.5025 45.59 36.5025 45.7C36.5025 45.82 36.4325 45.94 36.3125 46.03C35.9625 46.29 35.4725 46.25 35.0825 45.99ZM35.3225 46.97C36.8225 46.97 37.7725 48.11 37.7725 49.5C37.7725 50.9 36.8225 52.04 35.3225 52.04C33.8125 52.04 32.8625 50.9 32.8625 49.5C32.8625 48.11 33.8125 46.97 35.3225 46.97ZM35.3225 51.72C36.5225 51.72 37.4125 50.8 37.4125 49.5C37.4125 48.21 36.5225 47.28 35.3225 47.28C34.1125 47.28 33.2225 48.21 33.2225 49.5C33.2225 50.8 34.1125 51.72 35.3225 51.72ZM42.2986 51.51C42.4886 51.43 42.5186 51.46 42.5586 51.58C42.5986 51.7 42.5386 51.75 42.4886 51.77C42.0986 51.93 41.6186 52.04 41.0386 52.04C39.4686 52.04 38.4386 50.9 38.4386 49.5C38.4386 48.11 39.4486 46.97 40.8486 46.97C41.8686 46.97 42.5686 47.49 42.5886 48.32C42.6086 48.98 42.3186 49.6 41.1586 49.69C39.8686 49.79 38.8586 49.87 38.8586 49.87C38.8486 49.87 38.8386 49.87 38.8186 49.88C38.9786 50.85 39.7586 51.73 41.0386 51.73C41.5286 51.73 42.0086 51.63 42.2986 51.51ZM40.8886 47.27C39.5086 47.27 38.7886 48.36 38.7886 49.5C38.7886 49.52 38.7886 49.53 38.7886 49.55C39.0286 49.53 40.4386 49.42 41.1886 49.36C41.7286 49.32 42.2586 49.09 42.2386 48.36C42.2286 47.86 41.7786 47.27 40.8886 47.27ZM46.4796 50.66C46.4796 51.32 46.0296 52.04 44.8096 52.04C44.2396 52.04 43.8996 52.01 43.5896 51.91C43.3996 51.87 43.3896 51.77 43.4296 51.66C43.4896 51.5 43.6896 51.56 43.8396 51.6C43.9996 51.64 44.3196 51.72 44.7496 51.72C45.4096 51.72 46.1296 51.45 46.1296 50.66C46.1296 49.98 45.5296 49.8 44.8396 49.54C44.0396 49.24 43.3896 48.96 43.3896 48.08C43.3896 47.44 43.8796 46.97 44.7196 46.97C45.1896 46.97 45.6096 47.04 45.7996 47.09C45.9796 47.14 45.9696 47.21 45.9496 47.31C45.9296 47.43 45.8296 47.45 45.6196 47.41C45.4096 47.37 45.1596 47.28 44.7296 47.28C44.1096 47.28 43.7496 47.55 43.7496 48.12C43.7496 48.8 44.3796 48.98 45.0396 49.24C45.9196 49.57 46.4796 49.8 46.4796 50.66ZM53.2862 50.66C53.2862 51.32 52.8362 52.04 51.6162 52.04C51.0462 52.04 50.7062 52.01 50.3962 51.91C50.2062 51.87 50.1962 51.77 50.2362 51.66C50.2962 51.5 50.4962 51.56 50.6462 51.6C50.8062 51.64 51.1262 51.72 51.5562 51.72C52.2162 51.72 52.9362 51.45 52.9362 50.66C52.9362 49.98 52.3362 49.8 51.6462 49.54C50.8462 49.24 50.1962 48.96 50.1962 48.08C50.1962 47.44 50.6862 46.97 51.5262 46.97C51.9962 46.97 52.4162 47.04 52.6062 47.09C52.7862 47.14 52.7762 47.21 52.7562 47.31C52.7362 47.43 52.6362 47.45 52.4262 47.41C52.2162 47.37 51.9662 47.28 51.5362 47.28C50.9162 47.28 50.5562 47.55 50.5562 48.12C50.5562 48.8 51.1862 48.98 51.8462 49.24C52.7262 49.57 53.2862 49.8 53.2862 50.66ZM57.8162 51.51C58.0062 51.43 58.0362 51.46 58.0762 51.58C58.1162 51.7 58.0562 51.75 58.0062 51.77C57.6162 51.93 57.1362 52.04 56.5562 52.04C54.9862 52.04 53.9562 50.9 53.9562 49.5C53.9562 48.11 54.9662 46.97 56.3662 46.97C57.3862 46.97 58.0862 47.49 58.1062 48.32C58.1262 48.98 57.8362 49.6 56.6762 49.69C55.3862 49.79 54.3762 49.87 54.3762 49.87C54.3662 49.87 54.3562 49.87 54.3362 49.88C54.4962 50.85 55.2762 51.73 56.5562 51.73C57.0462 51.73 57.5262 51.63 57.8162 51.51ZM56.4062 47.27C55.0262 47.27 54.3062 48.36 54.3062 49.5C54.3062 49.52 54.3062 49.53 54.3062 49.55C54.5462 49.53 55.9562 49.42 56.7062 49.36C57.2462 49.32 57.7762 49.09 57.7562 48.36C57.7462 47.86 57.2962 47.27 56.4062 47.27ZM62.2421 51.72C62.3421 51.87 62.3421 52 62.1921 52C62.0621 52 61.9521 51.96 61.5021 51.25C61.4821 51.22 61.0321 50.56 60.5121 49.78C59.9821 50.56 59.5321 51.22 59.5121 51.25C59.0621 51.96 58.9521 52 58.8221 52C58.6721 52 58.6721 51.87 58.7721 51.72C58.7721 51.72 59.5721 50.54 60.2921 49.46C59.5821 48.41 58.8121 47.28 58.8121 47.28C58.7121 47.13 58.7121 47.01 58.8621 47.01C59.0521 47.01 59.2021 47.16 59.5921 47.77C59.6121 47.81 60.0221 48.41 60.5121 49.14C60.9921 48.41 61.4021 47.81 61.4221 47.77C61.8121 47.16 61.9621 47.01 62.1521 47.01C62.3021 47.01 62.3021 47.13 62.2021 47.28C62.2021 47.28 61.4321 48.41 60.7221 49.46C61.4421 50.54 62.2421 51.72 62.2421 51.72ZM66.3329 50.23V48.18C66.3329 47.47 66.3429 47.01 66.5329 47.01C66.6829 47.01 66.6929 47.13 66.6929 47.28V50.19C66.6929 51.25 66.2029 52.04 64.8629 52.04C63.5229 52.04 63.0329 51.25 63.0329 50.19V48.06C63.0329 47.35 63.0629 47.01 63.2429 47.01C63.3929 47.01 63.3929 47.13 63.3929 47.28V50.23C63.3929 51.22 63.8729 51.73 64.8629 51.73C65.8529 51.73 66.3329 51.22 66.3329 50.23ZM71.5197 47.01C71.6397 47.01 71.6497 47.09 71.6497 47.24V51.76C71.6497 51.91 71.6397 52 71.5197 52C71.3897 52 71.2997 51.85 71.2997 51.14C71.2997 51.04 71.2997 50.9 71.2997 50.75C70.9697 51.55 70.3897 52.04 69.5797 52.04C68.3097 52.04 67.5597 51 67.5597 49.66C67.5597 47.9 68.6397 46.97 69.7297 46.97C70.3297 46.97 70.9197 47.15 71.3197 47.35C71.3597 47.08 71.4297 47.01 71.5197 47.01ZM69.6597 51.73C70.6297 51.73 71.2697 50.6 71.2997 49.49C71.2997 48.77 71.2997 48.06 71.2997 47.87C71.2997 47.79 71.2997 47.72 71.2997 47.66C70.9997 47.53 70.4197 47.28 69.9097 47.28C68.5797 47.28 67.9197 48.23 67.9197 49.61C67.9197 50.72 68.4497 51.73 69.6597 51.73ZM73.0774 47.01C73.1974 47.01 73.2074 47.09 73.2074 47.24V51.72C73.2074 51.87 73.1874 52 73.0274 52C72.8774 52 72.8574 51.87 72.8574 51.72C72.8574 51.72 72.8574 48.57 72.8574 47.87C72.8574 47.16 72.9474 47.01 73.0774 47.01ZM73.0274 45.87C72.8974 45.87 72.7874 45.76 72.7874 45.63C72.7874 45.49 72.8974 45.38 73.0274 45.38C73.1674 45.38 73.2774 45.49 73.2774 45.63C73.2774 45.76 73.1674 45.87 73.0274 45.87ZM77.1534 50.66C77.1534 51.32 76.7034 52.04 75.4834 52.04C74.9134 52.04 74.5734 52.01 74.2634 51.91C74.0734 51.87 74.0634 51.77 74.1034 51.66C74.1634 51.5 74.3634 51.56 74.5134 51.6C74.6734 51.64 74.9934 51.72 75.4234 51.72C76.0834 51.72 76.8034 51.45 76.8034 50.66C76.8034 49.98 76.2034 49.8 75.5134 49.54C74.7134 49.24 74.0634 48.96 74.0634 48.08C74.0634 47.44 74.5534 46.97 75.3934 46.97C75.8634 46.97 76.2834 47.04 76.4734 47.09C76.6534 47.14 76.6434 47.21 76.6234 47.31C76.6034 47.43 76.5034 47.45 76.2934 47.41C76.0834 47.37 75.8334 47.28 75.4034 47.28C74.7834 47.28 74.4234 47.55 74.4234 48.12C74.4234 48.8 75.0534 48.98 75.7134 49.24C76.5934 49.57 77.1534 49.8 77.1534 50.66ZM27.8023 59.5C27.8023 60.62 28.4523 61.73 29.8923 61.73C30.3823 61.73 30.8523 61.63 31.1523 61.51C31.3423 61.43 31.3723 61.46 31.4123 61.58C31.4523 61.7 31.3923 61.75 31.3423 61.77C30.9523 61.93 30.4723 62.04 29.8923 62.04C28.3223 62.04 27.4523 60.9 27.4523 59.5C27.4523 58.11 28.3223 56.97 29.8923 56.97C30.4723 56.97 30.9523 57.08 31.3423 57.24C31.3923 57.26 31.4523 57.31 31.4123 57.43C31.3723 57.55 31.3423 57.58 31.1523 57.5C30.8523 57.38 30.3823 57.28 29.8923 57.28C28.4523 57.28 27.8023 58.39 27.8023 59.5ZM34.4143 56.97C35.9143 56.97 36.8643 58.11 36.8643 59.5C36.8643 60.9 35.9143 62.04 34.4143 62.04C32.9043 62.04 31.9543 60.9 31.9543 59.5C31.9543 58.11 32.9043 56.97 34.4143 56.97ZM34.4143 61.72C35.6143 61.72 36.5043 60.8 36.5043 59.5C36.5043 58.21 35.6143 57.28 34.4143 57.28C33.2043 57.28 32.3143 58.21 32.3143 59.5C32.3143 60.8 33.2043 61.72 34.4143 61.72ZM42.9004 56.97C43.9704 56.97 44.4604 57.6 44.4604 58.71V61.76C44.4604 61.91 44.4304 62 44.2804 62C44.1304 62 44.1004 61.91 44.1004 61.76V58.66C44.1004 57.45 43.4004 57.28 42.8304 57.28C41.8404 57.28 41.2704 58.23 41.2704 59.56V61.76C41.2704 61.91 41.2404 62 41.0904 62C40.9404 62 40.9104 61.91 40.9104 61.76V58.66C40.9104 57.45 40.2104 57.28 39.6404 57.28C38.6704 57.28 38.1104 58.2 38.0904 59.5C38.0904 60.57 38.0904 61.72 38.0904 61.72C38.0904 61.87 38.0604 62 37.9104 62C37.7604 62 37.7304 61.87 37.7304 61.72V57.24C37.7304 57.09 37.7404 57.01 37.8604 57.01C37.9904 57.01 38.0904 57.16 38.0904 57.87C38.0904 57.92 38.0904 58 38.0904 58.08C38.4004 57.33 38.9704 56.97 39.7204 56.97C40.6004 56.97 41.0904 57.41 41.2304 58.19C41.5304 57.37 42.1204 56.97 42.9004 56.97ZM52.4798 55.2V61.76C52.4798 61.91 52.4698 62 52.3498 62C52.2198 62 52.1298 61.85 52.1298 61.14C52.1298 61.05 52.1298 60.91 52.1298 60.75C51.8098 61.55 51.2198 62.04 50.4198 62.04C49.1398 62.04 48.3898 61 48.3898 59.66C48.3898 57.9 49.4698 56.97 50.5598 56.97C51.1498 56.97 51.7298 57.14 52.1298 57.34C52.1298 57.09 52.1298 56.02 52.1298 55.83C52.1298 55.12 52.2198 54.97 52.3498 54.97C52.4698 54.97 52.4798 55.05 52.4798 55.2ZM50.4898 61.73C51.4598 61.73 52.1098 60.6 52.1298 59.49C52.1298 58.85 52.1298 58.16 52.1298 57.65C51.8298 57.53 51.2498 57.28 50.7398 57.28C49.4098 57.28 48.7498 58.23 48.7498 59.61C48.7498 60.72 49.2798 61.73 50.4898 61.73ZM55.8107 56.97C57.3107 56.97 58.2607 58.11 58.2607 59.5C58.2607 60.9 57.3107 62.04 55.8107 62.04C54.3007 62.04 53.3507 60.9 53.3507 59.5C53.3507 58.11 54.3007 56.97 55.8107 56.97ZM55.8107 61.72C57.0107 61.72 57.9007 60.8 57.9007 59.5C57.9007 58.21 57.0107 57.28 55.8107 57.28C54.6007 57.28 53.7107 58.21 53.7107 59.5C53.7107 60.8 54.6007 61.72 55.8107 61.72ZM61.3769 57.01C61.5969 57.04 61.5769 57.12 61.5269 57.25C61.4569 57.43 61.3769 57.28 60.8469 57.28C59.7169 57.29 59.4869 58.42 59.4669 59.7C59.4669 60.71 59.4669 61.72 59.4669 61.72C59.4669 61.87 59.4469 62 59.2969 62C59.1469 62 59.1169 61.87 59.1169 61.72V57.24C59.1169 57.09 59.1269 57.01 59.2469 57.01C59.3769 57.01 59.4669 57.16 59.4669 57.87C59.4669 57.87 59.4669 57.88 59.4669 57.89C59.7269 57.3 60.1669 56.97 60.9069 56.97C61.0769 56.97 61.2169 56.99 61.3769 57.01Z" fill="#E6E6E6"/>
<g clip-path="url(#clip0_81_12)">
<path d="M54.4526 203.257C54.4526 197.273 52.4146 196.632 52.0326 192.685C51.9812 190.996 52.1459 189.309 52.522 187.664" stroke="#E6E6E6" stroke-width="1.5" stroke-linecap="round" stroke-linejoin="round"/>
<path d="M38.7436 180.8C38.1393 181.075 37.5564 181.395 36.9996 181.757C35.7176 182.94 37.5796 185.246 39.5076 185.957C37.9357 186.799 36.6899 188.141 35.9681 189.771C35.2463 191.402 35.0898 193.227 35.5235 194.956C35.9572 196.685 36.9563 198.22 38.362 199.317C39.7677 200.414 41.4996 201.01 43.2826 201.01" stroke="#E6E6E6" stroke-width="1.5" stroke-linecap="round" stroke-linejoin="round"/>
<path d="M40.2559 200.414V203.257" stroke="#E6E6E6" stroke-width="1.5" stroke-linecap="round" stroke-linejoin="round"/>
<path d="M54.7208 180.743C53.8338 185.521 50.8998 194.964 41.9578 196.165L41.8648 196.175C41.1855 196.25 40.5041 196.054 39.9693 195.628C39.4345 195.202 39.0899 194.582 39.0106 193.904C38.9314 193.225 39.1239 192.542 39.5463 192.005C39.9687 191.468 40.5865 191.119 41.2648 191.036C46.4958 190.336 48.5838 183.479 48.9168 180.864" stroke="#E6E6E6" stroke-width="1.5" stroke-linecap="round" stroke-linejoin="round"/>
</g>
<g clip-path="url(#clip1_81_12)">
<path d="M162.25 68.749H166.75C167.148 68.749 167.529 68.591 167.811 68.3097C168.092 68.0284 168.25 67.6468 168.25 67.249V58.249C168.25 57.8512 168.092 57.4697 167.811 57.1884C167.529 56.9071 167.148 56.749 166.75 56.749H163.75C163.352 56.749 162.971 56.9071 162.689 57.1884C162.408 57.4697 162.25 57.8512 162.25 58.249V68.749Z" stroke="#E6E6E6" stroke-width="1.5" stroke-linecap="round" stroke-linejoin="round"/>
<path d="M150.25 65.749C149.852 65.749 149.471 65.9071 149.189 66.1884C148.908 66.4697 148.75 66.8512 148.75 67.249C148.75 67.6468 148.908 68.0284 149.189 68.3097C149.471 68.591 149.852 68.749 150.25 68.749H162.25V65.749H150.25Z" stroke="#E6E6E6" stroke-width="1.5" stroke-linecap="round" stroke-linejoin="round"/>
<path d="M164.7 71.5999C165.296 71.4001 165.815 71.0179 166.182 70.5074C166.549 69.9969 166.747 69.3838 166.747 68.7549H150.25C150.25 70.2758 150.67 71.7671 151.464 73.0642C152.258 74.3613 153.395 75.4136 154.75 76.1049L154 79.2509H163.75V73.0309C163.741 72.7235 163.828 72.4209 163.998 72.1647C164.168 71.9085 164.413 71.7112 164.7 71.5999Z" stroke="#E6E6E6" stroke-width="1.5" stroke-linecap="round" stroke-linejoin="round"/>
<path d="M149.192 63.4361C149.245 62.5923 149.604 61.7968 150.201 61.1984C150.799 60.6 151.593 60.2398 152.437 60.1851" stroke="#E6E6E6" stroke-width="1.5" stroke-linecap="round" stroke-linejoin="round"/>
<path d="M145.75 62.893C145.925 61.3241 146.628 59.8613 147.744 58.7451C148.86 57.6288 150.323 56.9256 151.892 56.751" stroke="#E6E6E6" stroke-width="1.5" stroke-linecap="round" stroke-linejoin="round"/>
</g>
<path d="M164.5 171.372C164.5 173.307 163.789 175.164 162.523 176.532C161.257 177.901 159.54 178.669 157.75 178.669C155.96 178.669 154.243 177.901 152.977 176.532C151.711 175.164 151 173.307 151 171.372C151 166.107 155.448 158.17 157.122 155.372C157.189 155.258 157.282 155.164 157.392 155.099C157.502 155.034 157.625 155 157.75 155C157.875 155 157.998 155.034 158.108 155.099C158.218 155.164 158.311 155.258 158.378 155.372C160.052 158.17 164.5 166.107 164.5 171.372Z" stroke="#E6E6E6" stroke-width="1.5" stroke-linecap="round" stroke-linejoin="round"/>
<path d="M157.75 175.429C157.257 175.429 156.769 175.324 156.314 175.12C155.859 174.917 155.446 174.618 155.097 174.241C154.749 173.864 154.473 173.417 154.285 172.925C154.096 172.432 154 171.905 154 171.372" stroke="#E6E6E6" stroke-width="1.5" stroke-linecap="round" stroke-linejoin="round"/>
<path d="M40.25 75.75C40.25 75.75 41.75 77.25 41.75 81.75C41.75 87 37.25 87.75 37.25 93.75C37.1722 95.3845 37.7071 96.9891 38.75 98.25" stroke="#E6E6E6" stroke-width="1.5" stroke-linecap="round" stroke-linejoin="round"/>
<path d="M53.75 75.75C53.75 75.75 52.25 77.25 52.25 81.75C52.25 87 56.75 87.75 56.75 93.75C56.8278 95.3845 56.2929 96.9891 55.25 98.25" stroke="#E6E6E6" stroke-width="1.5" stroke-linecap="round" stroke-linejoin="round"/>
<path d="M47 98.25V95.25" stroke="#E6E6E6" stroke-width="1.5" stroke-linecap="round" stroke-linejoin="round"/>
<path d="M47 95.25L43.768 91.878C43.4839 91.5944 43.2964 91.2286 43.2321 90.8324C43.1678 90.4361 43.2301 90.0298 43.41 89.671C43.5452 89.3998 43.7429 89.1646 43.9869 88.9849C44.2308 88.8051 44.5139 88.6859 44.813 88.6371C45.112 88.5882 45.4184 88.6112 45.7069 88.704C45.9953 88.7968 46.2576 88.9569 46.472 89.171L47 89.7L47.528 89.172C47.7424 88.9577 48.0047 88.7974 48.2933 88.7045C48.5819 88.6115 48.8884 88.5885 49.1876 88.6374C49.4868 88.6862 49.7701 88.8055 50.0141 88.9854C50.2581 89.1653 50.4558 89.4006 50.591 89.672C50.7703 90.031 50.8322 90.4373 50.7677 90.8334C50.7033 91.2295 50.5159 91.5953 50.232 91.879L47 95.25Z" stroke="#E6E6E6" stroke-width="1.5" stroke-linecap="round" stroke-linejoin="round"/>
<defs>
<clipPath id="clip0_81_12">
<rect width="24" height="24" fill="white" transform="translate(33 180)"/>
</clipPath>
<clipPath id="clip1_81_12">
<rect width="24" height="24" fill="white" transform="translate(145 56)"/>
</clipPath>
</defs>
</svg>
