<svg width="30" height="30" viewBox="0 0 30 30" fill="none" xmlns="http://www.w3.org/2000/svg">
<path d="M26.8158 29.0713C26.8158 21.5913 24.2683 20.79 23.7908 15.8563C23.7265 13.7453 23.9324 11.6361 24.4025 9.57996" stroke="#AE6E4B" stroke-linecap="round" stroke-linejoin="round"/>
<path d="M7.1795 1.00006C6.42415 1.34416 5.69548 1.74401 4.9995 2.19631C3.397 3.67506 5.7245 6.55756 8.1345 7.44631C6.16957 8.49819 4.61235 10.1763 3.71008 12.2143C2.80781 14.2523 2.61223 16.5331 3.15438 18.695C3.69651 20.8568 4.94531 22.7755 6.70249 24.1466C8.45966 25.5176 10.6245 26.2624 12.8533 26.2625" stroke="#AE6E4B" stroke-linecap="round" stroke-linejoin="round"/>
<path d="M9.06982 25.5174V29.0711" stroke="#AE6E4B" stroke-linecap="round" stroke-linejoin="round"/>
<path d="M27.151 0.928833C26.0423 6.90134 22.3748 18.705 11.1973 20.2063L11.081 20.2188C10.2319 20.3128 9.38011 20.0669 8.71164 19.535C8.04317 19.003 7.61235 18.2282 7.51329 17.3797C7.41421 16.5312 7.65494 15.6779 8.18289 15.0063C8.71084 14.3347 9.4831 13.8992 10.331 13.795C16.8698 12.92 19.4798 4.34884 19.896 1.08008" stroke="#AE6E4B" stroke-linecap="round" stroke-linejoin="round"/>
</svg>
