<svg width="16" height="16" viewBox="0 0 16 16" fill="none" xmlns="http://www.w3.org/2000/svg">
<g clip-path="url(#clip0_105_216)">
<path d="M3.825 1.4375H12.175C12.175 1.4375 14.5625 1.4375 14.5625 3.825V12.175C14.5625 12.175 14.5625 14.5625 12.175 14.5625H3.825C3.825 14.5625 1.4375 14.5625 1.4375 12.175V3.825C1.4375 3.825 1.4375 1.4375 3.825 1.4375Z" stroke="#E6E6E6" stroke-miterlimit="10"/>
<path d="M5.01874 7.99999C5.01874 8.39149 5.09585 8.77916 5.24567 9.14086C5.39549 9.50256 5.61509 9.83121 5.89193 10.108C6.16876 10.3849 6.49741 10.6045 6.85911 10.7543C7.22081 10.9041 7.60848 10.9812 7.99999 10.9812C8.39149 10.9812 8.77916 10.9041 9.14086 10.7543C9.50256 10.6045 9.83121 10.3849 10.108 10.108C10.3849 9.83121 10.6045 9.50256 10.7543 9.14086C10.9041 8.77916 10.9812 8.39149 10.9812 7.99999C10.9812 7.60848 10.9041 7.22081 10.7543 6.85911C10.6045 6.49741 10.3849 6.16876 10.108 5.89193C9.83121 5.61509 9.50256 5.39549 9.14086 5.24567C8.77916 5.09585 8.39149 5.01874 7.99999 5.01874C7.60848 5.01874 7.22081 5.09585 6.85911 5.24567C6.49741 5.39549 6.16876 5.61509 5.89193 5.89193C5.61509 6.16876 5.39549 6.49741 5.24567 6.85911C5.09585 7.22081 5.01874 7.60848 5.01874 7.99999Z" stroke="#E6E6E6" stroke-miterlimit="10"/>
<path d="M10.9813 4.12501C10.9813 4.36205 11.0754 4.58938 11.243 4.75699C11.4106 4.9246 11.638 5.01876 11.875 5.01876C12.112 5.01876 12.3394 4.9246 12.507 4.75699C12.6746 4.58938 12.7688 4.36205 12.7688 4.12501C12.7688 3.88797 12.6746 3.66065 12.507 3.49304C12.3394 3.32542 12.112 3.23126 11.875 3.23126C11.638 3.23126 11.4106 3.32542 11.243 3.49304C11.0754 3.66065 10.9813 3.88797 10.9813 4.12501Z" fill="#E6E6E6"/>
</g>
<defs>
<clipPath id="clip0_105_216">
<rect width="16" height="16" fill="white"/>
</clipPath>
</defs>
</svg>
