<svg width="16" height="16" viewBox="0 0 16 16" fill="none" xmlns="http://www.w3.org/2000/svg">
<g clip-path="url(#clip0_79_59)">
<path d="M3.825 1.4375H12.175C12.175 1.4375 14.5625 1.4375 14.5625 3.825V12.175C14.5625 12.175 14.5625 14.5625 12.175 14.5625H3.825C3.825 14.5625 1.4375 14.5625 1.4375 12.175V3.825C1.4375 3.825 1.4375 1.4375 3.825 1.4375Z" stroke="#E6E6E6" stroke-miterlimit="10"/>
<path d="M5.01875 8.00005C5.01875 8.39155 5.09587 8.77922 5.24569 9.14092C5.39551 9.50263 5.61511 9.83128 5.89194 10.1081C6.16878 10.3849 6.49743 10.6045 6.85913 10.7544C7.22083 10.9042 7.6085 10.9813 8 10.9813C8.39151 10.9813 8.77918 10.9042 9.14088 10.7544C9.50258 10.6045 9.83123 10.3849 10.1081 10.1081C10.3849 9.83128 10.6045 9.50263 10.7543 9.14092C10.9041 8.77922 10.9813 8.39155 10.9813 8.00005C10.9813 7.60855 10.9041 7.22088 10.7543 6.85917C10.6045 6.49747 10.3849 6.16882 10.1081 5.89199C9.83123 5.61515 9.50258 5.39555 9.14088 5.24573C8.77918 5.09591 8.39151 5.0188 8 5.0188C7.6085 5.0188 7.22083 5.09591 6.85913 5.24573C6.49743 5.39555 6.16878 5.61515 5.89194 5.89199C5.61511 6.16882 5.39551 6.49747 5.24569 6.85917C5.09587 7.22088 5.01875 7.60855 5.01875 8.00005Z" stroke="#E6E6E6" stroke-miterlimit="10"/>
<path d="M10.9812 4.12495C10.9812 4.36199 11.0754 4.58932 11.243 4.75693C11.4106 4.92454 11.638 5.0187 11.875 5.0187C12.112 5.0187 12.3394 4.92454 12.507 4.75693C12.6746 4.58932 12.7687 4.36199 12.7687 4.12495C12.7687 3.88791 12.6746 3.66059 12.507 3.49297C12.3394 3.32536 12.112 3.2312 11.875 3.2312C11.638 3.2312 11.4106 3.32536 11.243 3.49297C11.0754 3.66059 10.9812 3.88791 10.9812 4.12495Z" fill="#E6E6E6"/>
</g>
<defs>
<clipPath id="clip0_79_59">
<rect width="16" height="16" fill="white"/>
</clipPath>
</defs>
</svg>
