<svg width="32" height="32" viewBox="0 0 32 32" fill="none" xmlns="http://www.w3.org/2000/svg">
<path d="M7.41141 1.27856C7.4114 1.60045 7.47501 1.91916 7.59858 2.21638C7.72215 2.51361 7.90324 2.78348 8.13144 3.01049C8.35965 3.2375 8.63047 3.41717 8.92833 3.53917C9.2262 3.66118 9.54524 3.72312 9.86712 3.72142H20.9114C22.214 3.72142 23.4632 4.23887 24.3843 5.15995C25.3054 6.08102 25.8228 7.33026 25.8228 8.63285C25.8228 9.93544 25.3054 11.1847 24.3843 12.1058C23.4632 13.0268 22.214 13.5443 20.9114 13.5443H9.86712" stroke="#AE6E4B" stroke-miterlimit="10"/>
<path d="M2.5 1.27856C2.5 2.24543 2.69065 3.2028 3.06104 4.0959C3.43143 4.989 3.97429 5.8003 4.65857 6.48338C5.34284 7.16646 6.15509 7.7079 7.04883 8.07673C7.94258 8.44556 8.90029 8.63454 9.86715 8.63285C8.56455 8.63285 7.31531 9.1503 6.39424 10.0714C5.47317 10.9924 4.95572 12.2417 4.95572 13.5443C4.95572 14.8469 5.47317 16.0961 6.39424 17.0172C7.31531 17.9383 8.56455 18.4557 9.86715 18.4557H7.41143C6.10884 18.4557 4.8596 18.9732 3.93852 19.8942C3.01745 20.8153 2.5 22.0645 2.5 23.3671C2.5 24.6697 3.01745 25.919 3.93852 26.84C4.8596 27.7611 6.10884 28.2786 7.41143 28.2786H22.1329C22.4547 28.2769 22.7738 28.3388 23.0717 28.4608C23.3695 28.5828 23.6403 28.7625 23.8685 28.9895C24.0968 29.2165 24.2778 29.4864 24.4014 29.7836C24.525 30.0808 24.5886 30.3995 24.5886 30.7214" stroke="#AE6E4B" stroke-miterlimit="10"/>
<path d="M8.63284 13.5443H24.5886C25.8912 13.5443 27.1404 14.0617 28.0615 14.9828C28.9825 15.9038 29.5 17.1531 29.5 18.4557C29.5 19.7583 28.9825 21.0075 28.0615 21.9286C27.1404 22.8497 25.8912 23.3671 24.5886 23.3671H22.1329C23.0997 23.3654 24.0574 23.5544 24.9512 23.9232C25.8449 24.2921 26.6572 24.8335 27.3414 25.5166C28.0257 26.1997 28.5686 27.011 28.939 27.9041C29.3094 28.7972 29.5 29.7545 29.5 30.7214" stroke="#AE6E4B" stroke-miterlimit="10"/>
</svg>
