<svg width="16" height="16" viewBox="0 0 16 16" fill="none" xmlns="http://www.w3.org/2000/svg">
<path d="M12.775 6.2125C12.775 10.3875 8 14.5625 8 14.5625C8 14.5625 3.225 10.3875 3.225 6.2125C3.225 4.94609 3.72808 3.73155 4.62356 2.83607C5.51905 1.94058 6.73359 1.4375 8 1.4375C9.26641 1.4375 10.4809 1.94058 11.3764 2.83607C12.2719 3.73155 12.775 4.94609 12.775 6.2125Z" stroke="#E6E6E6" stroke-miterlimit="10"/>
<path d="M6.2125 6.21255C6.2125 6.44729 6.25874 6.67973 6.34857 6.8966C6.4384 7.11347 6.57006 7.31052 6.73605 7.4765C6.90203 7.64249 7.09909 7.77415 7.31595 7.86398C7.53282 7.95381 7.76526 8.00005 8 8.00005C8.23474 8.00005 8.46718 7.95381 8.68405 7.86398C8.90092 7.77415 9.09797 7.64249 9.26395 7.4765C9.42994 7.31052 9.56161 7.11347 9.65144 6.8966C9.74127 6.67973 9.7875 6.44729 9.7875 6.21255C9.7875 5.97781 9.74127 5.74537 9.65144 5.5285C9.56161 5.31163 9.42994 5.11458 9.26395 4.9486C9.09797 4.78261 8.90092 4.65094 8.68405 4.56111C8.46718 4.47128 8.23474 4.42505 8 4.42505C7.76526 4.42505 7.53282 4.47128 7.31595 4.56111C7.09909 4.65094 6.90203 4.78261 6.73605 4.9486C6.57006 5.11458 6.4384 5.31163 6.34857 5.5285C6.25874 5.74537 6.2125 5.97781 6.2125 6.21255Z" stroke="#E6E6E6" stroke-miterlimit="10"/>
</svg>
