<svg width="30" height="30" viewBox="0 0 30 30" fill="none" xmlns="http://www.w3.org/2000/svg">
<path d="M21.8055 2.47778C18.8873 2.47778 16.372 3.86476 15 6.16231C13.628 3.86476 11.1127 2.47778 8.19443 2.47778C3.83663 2.48303 0.305238 6.01442 0.299988 10.3722C0.299988 14.2636 2.74999 18.3306 7.56832 22.4575C9.79307 24.3507 12.1952 26.0249 14.7414 27.4569C14.9028 27.544 15.0972 27.544 15.2586 27.4569C17.8048 26.0249 20.2069 24.3507 22.4317 22.4575C27.25 18.3306 29.7 14.2636 29.7 10.3722C29.6947 6.01442 26.1634 2.48303 21.8055 2.47778ZM15 26.3544C13.0944 25.2655 1.38888 18.2762 1.38888 10.3722C1.39338 6.61549 4.43769 3.57117 8.19443 3.56667C11.0677 3.56667 13.4824 5.10609 14.4964 7.5833C14.6556 7.97098 15.1748 8.0409 15.4309 7.70914C15.4607 7.67063 15.4851 7.62831 15.5036 7.5833C16.5176 5.10609 18.9322 3.56667 21.8055 3.56667C25.5623 3.57117 28.6066 6.61549 28.6111 10.3722C28.6111 18.2667 16.9055 25.271 15 26.3544Z" fill="#AE6E4B"/>
</svg>
