<svg width="16" height="16" viewBox="0 0 16 16" fill="none" xmlns="http://www.w3.org/2000/svg">
<path d="M8.3125 1.4375C7.23392 1.43822 6.17389 1.71805 5.23549 2.24978C4.29708 2.78151 3.51226 3.54703 2.95733 4.4719C2.40241 5.39678 2.09628 6.44952 2.06871 7.52774C2.04114 8.60597 2.29307 9.67298 2.8 10.625L2.0625 13.9375L5.375 13.2C6.21319 13.6478 7.14246 13.8986 8.09215 13.9333C9.04184 13.968 9.98694 13.7857 10.8556 13.4002C11.7242 13.0147 12.4935 12.4362 13.1049 11.7087C13.7163 10.9812 14.1538 10.1238 14.3841 9.20183C14.6143 8.27982 14.6313 7.31745 14.4337 6.3879C14.2361 5.45835 13.8291 4.5861 13.2437 3.83748C12.6583 3.08887 11.9099 2.48361 11.0554 2.06774C10.2009 1.65186 9.26282 1.43632 8.3125 1.4375Z" stroke="#E6E6E6" stroke-miterlimit="10"/>
<path d="M9.79999 8.58126L11.5875 10.3688C11.5875 10.3688 9.20624 12.75 6.23124 9.74376C3.25624 6.73751 5.60624 4.38751 5.60624 4.38751L7.39374 6.17501L7.36249 6.23751C7.19706 6.56578 7.13999 6.93806 7.19952 7.30081C7.25904 7.66355 7.43208 7.99808 7.69374 8.25626C7.95193 8.51793 8.28645 8.69097 8.6492 8.75049C9.01195 8.81001 9.38422 8.75295 9.71249 8.58751L9.79999 8.58126Z" stroke="#E6E6E6" stroke-miterlimit="10"/>
</svg>
